<svg width="15" height="16" xmlns="http://www.w3.org/2000/svg">
  <path d="M6.697 8a.804.804 0 101.607 0 .804.804 0 00-1.607 0zm3.348 0a.804.804 0 101.607 0 .804.804 0 00-1.607 0zM3.348 8a.804.804 0 101.607 0 .804.804 0 00-1.607 0zm11.07-2.906A7.502 7.502 0 007.5.5h-.033A7.483 7.483 0 000 8.035a7.523 7.523 0 00.804 3.347v2.544a.77.77 0 00.77.77H4.12a7.523 7.523 0 003.347.804h.035a7.506 7.506 0 002.891-.574 7.442 7.442 0 002.39-1.594A7.482 7.482 0 0015 8.033a7.471 7.471 0 00-.581-2.94zm-2.53 7.332A6.194 6.194 0 017.5 14.228h-.028a6.25 6.25 0 01-2.898-.729l-.14-.075H2.075v-2.357l-.075-.14a6.25 6.25 0 01-.729-2.899 6.19 6.19 0 011.802-4.416 6.18 6.18 0 014.4-1.84h.028a6.198 6.198 0 014.406 1.823 6.198 6.198 0 011.823 4.433 6.203 6.203 0 01-1.843 4.398z" />
</svg>
