<?xml version="1.0" encoding="UTF-8"?>
<svg width="451" height="451" viewBox="0 0 451 451" version="1.1" xmlns="http://www.w3.org/2000/svg" xmlns:xlink="http://www.w3.org/1999/xlink">
  <circle cx="225.5" cy="225.5" r="225.5" fill="#7D3EAF"/>
  <circle cx="225.5" cy="225.5" r="225.5" fill="url(#paint0_linear)" fill-opacity="0.2"/>
  <path fill-rule="evenodd" clip-rule="evenodd" d="M188.304 79.6997C146.648 84.2858 115.399 103.344 98.645 134.378C93.4559 143.991 88.6744 158.12 86.4494 170.412C82.5134 192.162 83.4989 248.626 88.1321 266.778C90.8983 277.617 96.8571 290.385 103.866 300.492C110.093 309.473 123.658 322.877 132.848 329.131C140.31 334.209 143.294 337.258 144.958 341.51C145.64 343.252 146.529 354.046 146.947 365.653C147.519 381.526 148.128 387.621 149.439 390.638C151.039 394.318 151.36 394.531 153.574 393.386C157.591 391.307 164.838 385.156 178.087 372.579C195.515 356.036 202.191 350.673 206.789 349.524C208.956 348.982 223.523 348.27 239.16 347.941C256.252 347.582 271.738 346.705 277.99 345.745C299.606 342.422 316.269 334.28 332.44 319.137C350.929 301.823 361.722 283.412 366.709 260.683C368.875 250.807 369.688 214.93 368.348 188.253C367.441 170.175 366.9 166.019 364.453 158.336C358.307 139.034 348.127 122.572 334.189 109.395C318.994 95.0296 303.721 87.1222 281.279 82.0017C270.299 79.4971 267.809 79.3438 233.369 79.0489C213.388 78.8778 193.109 79.1706 188.304 79.6997ZM259.664 125.351C279.52 129.93 297.925 144.938 306.982 163.937C312.087 174.648 313.752 182.649 313.842 196.893L313.922 209.732L310.443 213.164C307.204 216.358 306.868 216.467 305.575 214.74C304.702 213.574 303.903 207.762 303.421 199.073C302.141 176.013 298.273 166.332 285.001 152.98C279.053 146.996 275.087 144.052 269.154 141.216C260.834 137.238 250.101 134.251 243.899 134.186C240.278 134.148 231.263 130.748 231.263 129.42C231.263 129.048 232.286 127.31 233.538 125.558L235.814 122.372L244.331 123.077C249.016 123.464 255.916 124.488 259.664 125.351ZM179.264 143.245C184.085 145.526 202.94 164.227 206.467 170.226C209.791 175.883 210.202 182.002 207.53 186.069C206.504 187.628 202.851 191.064 199.411 193.703C187.99 202.464 186.715 207.78 193.016 220.391C198.466 231.296 213.883 246.666 224.823 252.098C229.978 254.657 234.053 255.959 236.915 255.959C240.963 255.959 241.79 255.384 250.199 246.711C255.132 241.624 260.689 236.85 262.551 236.102C267.799 233.992 273.466 237.385 286.633 250.518C304.007 267.849 306.188 272.39 301.784 282.065C299.033 288.111 285.222 302.164 278.908 305.343C272.215 308.713 260.971 309.37 253.192 306.847C238.533 302.092 211.101 285.804 195.717 272.721C167.337 248.588 138.649 201.995 138.208 179.318C138.084 173.035 138.438 171.871 142.581 164.911C147.894 155.984 157.169 145.659 162.015 143.278C166.457 141.095 174.686 141.079 179.264 143.245ZM257.587 146.498C273.826 151.753 287.597 167.281 291.172 184.368C293.062 193.407 292.687 201.024 290.23 203.474C286.021 207.669 284.545 205.761 281.913 192.723C279.315 179.845 276.84 174.383 270.582 167.713C264.507 161.239 258.217 157.893 246.787 155.058C237.95 152.865 232.316 150.518 232.316 149.031C232.316 148.167 236.35 145.887 240.213 144.568C242.993 143.621 251.671 144.583 257.587 146.498ZM253.465 167.829C259.936 171.12 266.084 177.205 268.798 183.004C271.71 189.223 271.831 192.3 269.348 196.939L267.51 200.377L264.752 197.464C263.236 195.862 261.215 192.662 260.262 190.352C257.957 184.769 253.98 180.752 247.584 177.545C244.688 176.093 241.02 173.691 239.432 172.206C236.726 169.676 236.653 169.386 238.279 167.595C240.652 164.98 248.087 165.094 253.465 167.829Z" fill="white"/>
  <defs>
  <linearGradient id="paint0_linear" x1="225.5" y1="0" x2="225.5" y2="451" gradientUnits="userSpaceOnUse">
  <stop stop-color="white"/>
  <stop offset="1" stop-color="white" stop-opacity="0"/>
  </linearGradient>
  </defs>
</svg>
