<svg width="13" height="14" viewBox="0 0 13 14" xmlns="http://www.w3.org/2000/svg">
<path d="M10.9742 1.7228C9.3972 0.145787 6.82912 0.145787 5.25378 1.7228L0.884363 6.08887C0.855903 6.11733 0.840836 6.15583 0.840836 6.19601C0.840836 6.23619 0.855903 6.27469 0.884363 6.30315L1.50211 6.9209C1.53034 6.94901 1.56857 6.9648 1.60841 6.9648C1.64826 6.9648 1.68648 6.94901 1.71472 6.9209L6.08414 2.55483C6.62655 2.01242 7.34809 1.71443 8.11483 1.71443C8.88157 1.71443 9.60311 2.01242 10.1438 2.55483C10.6863 3.09724 10.9843 3.81878 10.9843 4.58384C10.9843 5.35059 10.6863 6.07045 10.1438 6.61286L5.69072 11.0643L4.96918 11.7859C4.29452 12.4605 3.19798 12.4605 2.52331 11.7859C2.19686 11.4594 2.01773 11.0258 2.01773 10.5638C2.01773 10.1017 2.19686 9.66811 2.52331 9.34166L6.94128 4.92536C7.05345 4.81487 7.20077 4.75293 7.35813 4.75293H7.35981C7.51717 4.75293 7.66282 4.81487 7.77331 4.92536C7.88548 5.03753 7.94575 5.18485 7.94575 5.34222C7.94575 5.49791 7.8838 5.64523 7.77331 5.75572L4.16226 9.36342C4.1338 9.39188 4.11874 9.43038 4.11874 9.47056C4.11874 9.51074 4.1338 9.54925 4.16226 9.57771L4.78001 10.1955C4.80825 10.2236 4.84647 10.2393 4.88632 10.2393C4.92616 10.2393 4.96438 10.2236 4.99262 10.1955L8.60199 6.58608C8.93514 6.25293 9.11762 5.81097 9.11762 5.34054C9.11762 4.87012 8.93347 4.42648 8.60199 4.09501C7.91394 3.40695 6.79563 3.40862 6.10758 4.09501L5.679 4.52525L1.69128 8.5113C1.42063 8.78036 1.20609 9.10048 1.0601 9.45309C0.914115 9.80571 0.839585 10.1838 0.840836 10.5654C0.840836 11.3405 1.14385 12.0688 1.69128 12.6162C2.2588 13.1821 3.00211 13.465 3.74541 13.465C4.48871 13.465 5.23202 13.1821 5.79787 12.6162L10.9742 7.44322C11.7359 6.67983 12.1578 5.66364 12.1578 4.58384C12.1595 3.50237 11.7376 2.48619 10.9742 1.7228Z" />
</svg>
