<svg width="11" height="12" viewBox="0 0 11 12" xmlns="http://www.w3.org/2000/svg">
<path d="M6.36662 5.99934L10.7612 0.761056C10.8348 0.674003 10.7729 0.541748 10.659 0.541748H9.3231C9.24442 0.541748 9.16908 0.576904 9.11718 0.637172L5.49274 4.95804L1.8683 0.637172C1.81808 0.576904 1.74274 0.541748 1.66238 0.541748H0.326446C0.212606 0.541748 0.150664 0.674003 0.224325 0.761056L4.61886 5.99934L0.224325 11.2376C0.207824 11.257 0.197238 11.2808 0.193824 11.306C0.190409 11.3312 0.194309 11.3569 0.205062 11.38C0.215814 11.4031 0.232966 11.4226 0.254482 11.4363C0.275999 11.4499 0.300975 11.4571 0.326446 11.4569H1.66238C1.74107 11.4569 1.8164 11.4218 1.8683 11.3615L5.49274 7.04063L9.11718 11.3615C9.16741 11.4218 9.24274 11.4569 9.3231 11.4569H10.659C10.7729 11.4569 10.8348 11.3247 10.7612 11.2376L6.36662 5.99934Z" />
</svg>
