<svg width="15" height="16" viewBox="0 0 15 16" fill="none" xmlns="http://www.w3.org/2000/svg">
<path d="M3.24289 12.016C3.27637 12.016 3.30985 12.0127 3.34333 12.0077L6.15918 11.5138C6.19266 11.5071 6.22447 11.492 6.24791 11.4669L13.3444 4.3704C13.36 4.35491 13.3723 4.33651 13.3807 4.31626C13.3891 4.29601 13.3934 4.2743 13.3934 4.25237C13.3934 4.23045 13.3891 4.20874 13.3807 4.18848C13.3723 4.16823 13.36 4.14984 13.3444 4.13435L10.5621 1.35031C10.5303 1.3185 10.4884 1.30176 10.4432 1.30176C10.398 1.30176 10.3562 1.3185 10.3244 1.35031L3.22782 8.44685C3.20271 8.47196 3.18764 8.50209 3.18094 8.53557L2.68708 11.3514C2.6708 11.4411 2.67662 11.5334 2.70404 11.6203C2.73146 11.7073 2.77965 11.7862 2.84445 11.8503C2.95494 11.9574 3.09389 12.016 3.24289 12.016ZM4.37123 9.0964L10.4432 3.02609L11.6703 4.25321L5.59835 10.3235L4.11007 10.5864L4.37123 9.0964ZM13.6609 13.4223H1.33943C1.04311 13.4223 0.803711 13.6617 0.803711 13.958V14.5607C0.803711 14.6343 0.863979 14.6946 0.93764 14.6946H14.0626C14.1363 14.6946 14.1966 14.6343 14.1966 14.5607V13.958C14.1966 13.6617 13.9572 13.4223 13.6609 13.4223Z" fill="#607D8B"/>
</svg>
