<svg width="15" height="16" viewBox="0 0 15 16" xmlns="http://www.w3.org/2000/svg">
<path d="M0 2.58472C0 1.43336 0.933361 0.5 2.08472 0.5H12.9153C14.0666 0.5 15 1.43336 15 2.58472V13.4153C15 14.5666 14.0666 15.5 12.9153 15.5H2.08472C0.93336 15.5 0 14.5666 0 13.4153V2.58472Z" />
<path d="M12.75 7.86395L3.86854 3.41101C3.83244 3.39296 3.79103 3.38872 3.75174 3.39827C3.70814 3.40905 3.67059 3.43667 3.64731 3.47507C3.62403 3.51348 3.61691 3.55955 3.62752 3.60319L4.54274 7.34264C4.55654 7.39891 4.59795 7.44457 4.65316 7.46262L6.22135 8.00092L4.65422 8.53922C4.59901 8.55833 4.55761 8.60293 4.54486 8.6592L3.62752 12.404C3.61796 12.4432 3.62221 12.4846 3.64026 12.5197C3.68167 12.6036 3.7836 12.6375 3.86854 12.5961L12.75 8.16867C12.7829 8.15275 12.8095 8.12514 12.8264 8.09329C12.8679 8.00835 12.8339 7.90642 12.75 7.86395ZM5.20845 8.87413V9.15715L8.34271 8.08161C8.36713 8.07312 8.3873 8.05401 8.3958 8.02852C8.41066 7.98393 8.3873 7.93615 8.34271 7.92023L5.20845 6.84574L5.99567 7.34264L7.29897 7.92023L5.20845 8.87413Z" fill="white"/>
<path d="M2.08472 0.916944H12.9153V0.083056H2.08472V0.916944ZM14.5831 2.58472V13.4153H15.4169V2.58472H14.5831ZM12.9153 15.0831H2.08472V15.9169H12.9153V15.0831ZM0.416944 13.4153V2.58472H-0.416944V13.4153H0.416944ZM2.08472 15.0831C1.16363 15.0831 0.416944 14.3364 0.416944 13.4153H-0.416944C-0.416944 14.7969 0.703088 15.9169 2.08472 15.9169V15.0831ZM14.5831 13.4153C14.5831 14.3364 13.8364 15.0831 12.9153 15.0831V15.9169C14.2969 15.9169 15.4169 14.7969 15.4169 13.4153H14.5831ZM12.9153 0.916944C13.8364 0.916944 14.5831 1.66363 14.5831 2.58472H15.4169C15.4169 1.20309 14.2969 0.083056 12.9153 0.083056V0.916944ZM2.08472 0.083056C0.703089 0.083056 -0.416944 1.20309 -0.416944 2.58472H0.416944C0.416944 1.66363 1.16363 0.916944 2.08472 0.916944V0.083056Z" />
</svg>
