<svg width="13" height="14" viewBox="0 0 13 14" xmlns="http://www.w3.org/2000/svg">
<path d="M7.00198 0.974121H5.99752C5.90823 0.974121 5.86359 1.01876 5.86359 1.10805V6.36475H0.87514C0.785854 6.36475 0.741211 6.40939 0.741211 6.49867V7.50314C0.741211 7.59243 0.785854 7.63707 0.87514 7.63707H5.86359V12.8938C5.86359 12.9831 5.90823 13.0277 5.99752 13.0277H7.00198C7.09127 13.0277 7.13591 12.9831 7.13591 12.8938V7.63707H12.1251C12.2144 7.63707 12.2591 7.59243 12.2591 7.50314V6.49867C12.2591 6.40939 12.2144 6.36475 12.1251 6.36475H7.13591V1.10805C7.13591 1.01876 7.09127 0.974121 7.00198 0.974121Z" />
</svg>
