<svg width="15" height="12" viewBox="0 0 15 12" xmlns="http://www.w3.org/2000/svg">
    <path d="M14.1967 0.643415H4.41992C4.34626 0.643415 4.28599 0.703683 4.28599 0.777344V1.71484C4.28599 1.7885 4.34626 1.84877 4.41992 1.84877H14.1967C14.2704 1.84877 14.3306 1.7885 14.3306 1.71484V0.777344C14.3306 0.703683 14.2704 0.643415 14.1967 0.643415ZM14.1967 5.39788H4.41992C4.34626 5.39788 4.28599 5.45815 4.28599 5.53181V6.46931C4.28599 6.54297 4.34626 6.60324 4.41992 6.60324H14.1967C14.2704 6.60324 14.3306 6.54297 14.3306 6.46931V5.53181C14.3306 5.45815 14.2704 5.39788 14.1967 5.39788ZM14.1967 10.1523H4.41992C4.34626 10.1523 4.28599 10.2126 4.28599 10.2863V11.2238C4.28599 11.2974 4.34626 11.3577 4.41992 11.3577H14.1967C14.2704 11.3577 14.3306 11.2974 14.3306 11.2238V10.2863C14.3306 10.2126 14.2704 10.1523 14.1967 10.1523ZM0.669922 1.24609C0.669922 1.36921 0.694171 1.49112 0.741285 1.60486C0.788399 1.7186 0.857454 1.82195 0.944509 1.90901C1.03156 1.99606 1.13491 2.06512 1.24866 2.11223C1.3624 2.15934 1.48431 2.18359 1.60742 2.18359C1.73054 2.18359 1.85244 2.15934 1.96619 2.11223C2.07993 2.06512 2.18328 1.99606 2.27033 1.90901C2.35739 1.82195 2.42645 1.7186 2.47356 1.60486C2.52067 1.49112 2.54492 1.36921 2.54492 1.24609C2.54492 1.12298 2.52067 1.00107 2.47356 0.887328C2.42645 0.773585 2.35739 0.670236 2.27033 0.583181C2.18328 0.496126 2.07993 0.42707 1.96619 0.379957C1.85244 0.332843 1.73054 0.308594 1.60742 0.308594C1.48431 0.308594 1.3624 0.332843 1.24866 0.379957C1.13491 0.42707 1.03156 0.496126 0.944509 0.583181C0.857454 0.670236 0.788399 0.773585 0.741285 0.887328C0.694171 1.00107 0.669922 1.12298 0.669922 1.24609ZM0.669922 6.00056C0.669922 6.12367 0.694171 6.24558 0.741285 6.35932C0.788399 6.47307 0.857454 6.57642 0.944509 6.66347C1.03156 6.75052 1.13491 6.81958 1.24866 6.86669C1.3624 6.91381 1.48431 6.93806 1.60742 6.93806C1.73054 6.93806 1.85244 6.91381 1.96619 6.86669C2.07993 6.81958 2.18328 6.75052 2.27033 6.66347C2.35739 6.57642 2.42645 6.47307 2.47356 6.35932C2.52067 6.24558 2.54492 6.12367 2.54492 6.00056C2.54492 5.87744 2.52067 5.75554 2.47356 5.64179C2.42645 5.52805 2.35739 5.4247 2.27033 5.33765C2.18328 5.25059 2.07993 5.18153 1.96619 5.13442C1.85244 5.08731 1.73054 5.06306 1.60742 5.06306C1.48431 5.06306 1.3624 5.08731 1.24866 5.13442C1.13491 5.18153 1.03156 5.25059 0.944509 5.33765C0.857454 5.4247 0.788399 5.52805 0.741285 5.64179C0.694171 5.75554 0.669922 5.87744 0.669922 6.00056ZM0.669922 10.755C0.669922 10.8781 0.694171 11 0.741285 11.1138C0.788399 11.2275 0.857454 11.3309 0.944509 11.4179C1.03156 11.505 1.13491 11.574 1.24866 11.6212C1.3624 11.6683 1.48431 11.6925 1.60742 11.6925C1.73054 11.6925 1.85244 11.6683 1.96619 11.6212C2.07993 11.574 2.18328 11.505 2.27033 11.4179C2.35739 11.3309 2.42645 11.2275 2.47356 11.1138C2.52067 11 2.54492 10.8781 2.54492 10.755C2.54492 10.6319 2.52067 10.51 2.47356 10.3963C2.42645 10.2825 2.35739 10.1792 2.27033 10.0921C2.18328 10.0051 2.07993 9.936 1.96619 9.88889C1.85244 9.84177 1.73054 9.81752 1.60742 9.81752C1.48431 9.81752 1.3624 9.84177 1.24866 9.88889C1.13491 9.936 1.03156 10.0051 0.944509 10.0921C0.857454 10.1792 0.788399 10.2825 0.741285 10.3963C0.694171 10.51 0.669922 10.6319 0.669922 10.755Z"/>
</svg>
