<svg width="13" height="15" viewBox="0 0 13 15" xmlns="http://www.w3.org/2000/svg">
<path d="M3.95522 2.00736H3.82129C3.89495 2.00736 3.95522 1.94709 3.95522 1.87343V2.00736H9.0445V1.87343C9.0445 1.94709 9.10477 2.00736 9.17843 2.00736H9.0445V3.21272H10.2499V1.87343C10.2499 1.28247 9.76939 0.802002 9.17843 0.802002H3.82129C3.23033 0.802002 2.74986 1.28247 2.74986 1.87343V3.21272H3.95522V2.00736ZM12.3927 3.21272H0.607003C0.310686 3.21272 0.0712891 3.45211 0.0712891 3.74843V4.28415C0.0712891 4.35781 0.131557 4.41807 0.205218 4.41807H1.21638L1.62988 13.1737C1.65667 13.7445 2.12877 14.1949 2.69964 14.1949H10.3001C10.8726 14.1949 11.3431 13.7462 11.3698 13.1737L11.7833 4.41807H12.7945C12.8682 4.41807 12.9284 4.35781 12.9284 4.28415V3.74843C12.9284 3.45211 12.689 3.21272 12.3927 3.21272ZM10.1712 12.9895H2.82854L2.42341 4.41807H10.5763L10.1712 12.9895Z" />
</svg>
