<svg width="13" height="16" viewBox="0 0 13 16" xmlns="http://www.w3.org/2000/svg">
    <path d="M11.8574 1.30357H10.0494V0.633929C10.0494 0.560268 9.98912 0.5 9.91546 0.5H8.97796C8.9043 0.5 8.84403 0.560268 8.84403 0.633929V1.30357H6.29939V0.633929C6.29939 0.560268 6.23912 0.5 6.16546 0.5H5.22796C5.1543 0.5 5.09403 0.560268 5.09403 0.633929V1.30357H3.28599C2.98968 1.30357 2.75028 1.54297 2.75028 1.83929V3.84821H1.14314C0.846819 3.84821 0.607422 4.08761 0.607422 4.38393V14.9643C0.607422 15.2606 0.846819 15.5 1.14314 15.5H9.71456C10.0109 15.5 10.2503 15.2606 10.2503 14.9643V13.3571H11.8574C12.1537 13.3571 12.3931 13.1177 12.3931 12.8214V1.83929C12.3931 1.54297 12.1537 1.30357 11.8574 1.30357ZM9.04492 14.2946H1.81278V5.05357H5.46233V7.96652C5.46233 8.3365 5.762 8.63616 6.13198 8.63616H9.04492V14.2946ZM9.04492 7.56473H6.53376V5.05357H6.53711L9.04492 7.56138V7.56473ZM11.1878 12.1518H10.2503V7.0625L7.03599 3.84821H3.95564V2.50893H5.09403V3.04464C5.09403 3.1183 5.1543 3.17857 5.22796 3.17857H6.16546C6.23912 3.17857 6.29939 3.1183 6.29939 3.04464V2.50893H8.84403V3.04464C8.84403 3.1183 8.9043 3.17857 8.97796 3.17857H9.91546C9.98912 3.17857 10.0494 3.1183 10.0494 3.04464V2.50893H11.1878V12.1518Z" />
</svg>
