<svg width="15" height="16" viewBox="0 0 15 16" xmlns="http://www.w3.org/2000/svg">
<path d="M14.4102 9.90597L13.3137 8.96847C13.3656 8.65039 13.3924 8.32561 13.3924 8.00084C13.3924 7.67606 13.3656 7.35128 13.3137 7.0332L14.4102 6.0957C14.4929 6.0249 14.5521 5.9306 14.5799 5.82533C14.6078 5.72007 14.6029 5.60883 14.5659 5.50642L14.5509 5.46289C14.249 4.61918 13.7969 3.83706 13.2166 3.1543L13.1865 3.11914C13.1161 3.03636 13.0222 2.97685 12.9173 2.94846C12.8124 2.92007 12.7014 2.92413 12.5988 2.9601L11.2378 3.44392C10.7356 3.03209 10.1747 2.70731 9.56871 2.47963L9.30588 1.05664C9.28605 0.949568 9.23411 0.851064 9.15696 0.774215C9.07981 0.697366 8.9811 0.645809 8.87396 0.626395L8.82876 0.618025C7.95655 0.460658 7.03913 0.460658 6.16692 0.618025L6.12172 0.626395C6.01458 0.645809 5.91587 0.697366 5.83872 0.774215C5.76157 0.851064 5.70963 0.949568 5.6898 1.05664L5.4253 2.48633C4.8241 2.71405 4.26425 3.03866 3.76793 3.44727L2.39684 2.9601C2.29432 2.92384 2.1832 2.91964 2.07825 2.94805C1.97329 2.97645 1.87946 3.03613 1.80922 3.11914L1.77909 3.1543C1.19943 3.83754 0.747466 4.61954 0.444828 5.46289L0.429761 5.50642C0.354426 5.71568 0.416368 5.95006 0.585453 6.0957L1.69539 7.04325C1.64349 7.35798 1.61838 7.67941 1.61838 7.99916C1.61838 8.32059 1.64349 8.64202 1.69539 8.95508L0.585453 9.90262C0.502745 9.97343 0.443549 10.0677 0.415738 10.173C0.387927 10.2783 0.392818 10.3895 0.429761 10.4919L0.444828 10.5354C0.747841 11.3792 1.1965 12.1576 1.77909 12.844L1.80922 12.8792C1.87963 12.962 1.97346 13.0215 2.07836 13.0499C2.18325 13.0783 2.29429 13.0742 2.39684 13.0382L3.76793 12.5511C4.26681 12.9612 4.82429 13.286 5.4253 13.512L5.6898 14.9417C5.70963 15.0488 5.76157 15.1473 5.83872 15.2241C5.91587 15.301 6.01458 15.3525 6.12172 15.3719L6.16692 15.3803C7.04715 15.5385 7.94853 15.5385 8.82876 15.3803L8.87396 15.3719C8.9811 15.3525 9.07981 15.301 9.15696 15.2241C9.23411 15.1473 9.28605 15.0488 9.30588 14.9417L9.56871 13.5187C10.1745 13.2916 10.7385 12.9658 11.2378 12.5544L12.5988 13.0382C12.7014 13.0745 12.8125 13.0787 12.9174 13.0503C13.0224 13.0219 13.1162 12.9622 13.1865 12.8792L13.2166 12.844C13.7992 12.156 14.2478 11.3792 14.5509 10.5354L14.5659 10.4919C14.6413 10.286 14.5793 10.0516 14.4102 9.90597ZM12.1251 7.23075C12.1669 7.48354 12.1887 7.74302 12.1887 8.00251C12.1887 8.262 12.1669 8.52148 12.1251 8.77427L12.0146 9.44559L13.2651 10.5153C13.0756 10.9521 12.8363 11.3655 12.552 11.7475L10.9984 11.1967L10.4727 11.6286C10.0726 11.9568 9.6273 12.2146 9.14516 12.3954L8.50733 12.6348L8.20766 14.2587C7.73484 14.3122 7.25749 14.3122 6.78467 14.2587L6.485 12.6314L5.85219 12.3887C5.37507 12.2079 4.93143 11.9501 4.53467 11.6236L4.009 11.19L2.44539 11.7458C2.16079 11.3624 1.92306 10.9489 1.73222 10.5137L2.99617 9.43387L2.88735 8.76423C2.84717 8.51479 2.82541 8.25698 2.82541 8.00251C2.82541 7.74637 2.8455 7.49023 2.88735 7.24079L2.99617 6.57115L1.73222 5.49135C1.92139 5.05441 2.16079 4.64258 2.44539 4.25921L4.009 4.81501L4.53467 4.38142C4.93143 4.05497 5.37507 3.79715 5.85219 3.61635L6.48668 3.37695L6.78634 1.74972C7.25677 1.69615 7.73724 1.69615 8.20934 1.74972L8.509 3.37361L9.14684 3.613C9.6273 3.79381 10.0743 4.05162 10.4744 4.37974L11.0001 4.81166L12.5536 4.26088C12.8382 4.64425 13.076 5.05776 13.2668 5.49302L12.0163 6.56278L12.1251 7.23075ZM7.49951 4.88867C5.87228 4.88867 4.55309 6.20787 4.55309 7.8351C4.55309 9.46233 5.87228 10.7815 7.49951 10.7815C9.12675 10.7815 10.4459 9.46233 10.4459 7.8351C10.4459 6.20787 9.12675 4.88867 7.49951 4.88867ZM8.82541 9.16099C8.6515 9.3354 8.44483 9.47369 8.21729 9.56793C7.98974 9.66217 7.7458 9.71049 7.49951 9.7101C6.99896 9.7101 6.52853 9.51423 6.17362 9.16099C5.99922 8.98709 5.86092 8.78042 5.76668 8.55287C5.67245 8.32533 5.62413 8.08139 5.62451 7.8351C5.62451 7.33454 5.82038 6.86412 6.17362 6.50921C6.52853 6.1543 6.99896 5.9601 7.49951 5.9601C8.00007 5.9601 8.4705 6.1543 8.82541 6.50921C8.99981 6.68311 9.13811 6.88978 9.23234 7.11733C9.32658 7.34488 9.3749 7.58881 9.37451 7.8351C9.37451 8.33566 9.17864 8.80608 8.82541 9.16099Z"/>
</svg>
