<svg width="50" height="51" viewBox="0 0 50 51" fill="none" xmlns="http://www.w3.org/2000/svg">
<g clip-path="url(#clip0_2518:45294)">
<rect y="0.5" width="50" height="50" rx="25" fill="#607D8B"/>
<path d="M36.9531 9.25H13.0469C12.4246 9.25 11.9219 9.75273 11.9219 10.375V33.5781C11.9219 34.2004 12.4246 34.7031 13.0469 34.7031H36.9531C37.5754 34.7031 38.0781 34.2004 38.0781 33.5781V10.375C38.0781 9.75273 37.5754 9.25 36.9531 9.25ZM17.5469 18.5312C17.5469 17.3676 18.4926 16.4219 19.6562 16.4219C20.8199 16.4219 21.7656 17.3676 21.7656 18.5312C21.7656 19.6949 20.8199 20.6406 19.6562 20.6406C18.4926 20.6406 17.5469 19.6949 17.5469 18.5312ZM30.625 27.25C30.625 27.4047 30.4984 27.5312 30.3438 27.5312H19.6562C19.5016 27.5312 19.375 27.4047 19.375 27.25V25.1406C19.375 24.9859 19.5016 24.8594 19.6562 24.8594H30.3438C30.4984 24.8594 30.625 24.9859 30.625 25.1406V27.25ZM30.3438 20.6406C29.1801 20.6406 28.2344 19.6949 28.2344 18.5312C28.2344 17.3676 29.1801 16.4219 30.3438 16.4219C31.5074 16.4219 32.4531 17.3676 32.4531 18.5312C32.4531 19.6949 31.5074 20.6406 30.3438 20.6406ZM35.0898 37.375H14.9102C14.425 37.375 14.0312 37.8777 14.0312 38.5V40.4688C14.0312 40.6234 13.9117 56 14.0312 56H35.9652C35.9652 51 35.9652 40.6234 35.9652 40.4688V38.5C35.9688 37.8777 35.575 37.375 35.0898 37.375Z" fill="white"/>
</g>
<defs>
<clipPath id="clip0_2518:45294">
<rect y="0.5" width="50" height="50" rx="25" fill="white"/>
</clipPath>
</defs>
</svg>
