<?xml version="1.0" encoding="UTF-8"?>
<svg width="451" height="451" viewBox="0 0 451 451" version="1.1" xmlns="http://www.w3.org/2000/svg" xmlns:xlink="http://www.w3.org/1999/xlink">
  <mask id="mask0" mask-type="alpha" maskUnits="userSpaceOnUse" x="0" y="0" width="451" height="451">
  <circle cx="225.5" cy="225.5" r="225.5" fill="#C4C4C4"/>
  </mask>
  <g mask="url(#mask0)">
  <path d="M450.327 0H-0.67334V451H450.327V0Z" fill="#1BD741"/>
  <path d="M67.1097 383.388L89.201 304.927C74.995 280.793 67.5155 253.335 67.5155 225.126C67.5155 138.273 138.176 67.6117 225.03 67.6117C311.884 67.6117 382.544 138.273 382.544 225.126C382.544 311.98 311.884 382.641 225.03 382.641C197.967 382.641 171.467 375.714 148.024 362.56L67.1097 383.388ZM152.161 333.903L156.982 336.847C177.422 349.326 200.953 355.921 225.03 355.921C297.151 355.921 355.824 297.247 355.824 225.126C355.824 153.006 297.151 94.3314 225.03 94.3314C152.91 94.3314 94.2352 153.006 94.2352 225.126C94.2352 250.256 101.377 274.659 114.888 295.697L118.134 300.753L105.413 345.937L152.161 333.903Z" fill="white"/>
  <path d="M180.782 151.814L170.561 151.257C167.351 151.082 164.202 152.155 161.776 154.263C156.821 158.566 148.898 166.884 146.464 177.725C142.835 193.888 148.443 213.68 162.958 233.473C177.473 253.265 204.522 284.933 252.353 298.458C267.767 302.816 279.892 299.878 289.246 293.894C296.656 289.155 301.763 281.548 303.604 272.948L305.236 265.326C305.754 262.903 304.524 260.445 302.274 259.408L267.731 243.486C265.489 242.453 262.83 243.106 261.321 245.06L247.761 262.64C246.736 263.968 244.983 264.494 243.399 263.938C234.113 260.675 203.005 247.646 185.936 214.767C185.196 213.341 185.38 211.61 186.43 210.394L199.39 195.401C200.714 193.87 201.049 191.718 200.253 189.857L185.363 155.022C184.571 153.167 182.794 151.924 180.782 151.814Z" fill="white"/>
  </g>
</svg>
