<?xml version="1.0" encoding="UTF-8"?>

<svg xmlns="http://www.w3.org/2000/svg" style="display: none;">
    <symbol id="comments" viewBox="0 0 120 120">
        <path d="M60 120C93.1371 120 120 93.1371 120 60C120 26.8629 93.1371 0 60 0C26.8629 0 0 26.8629 0 60C0 93.1371 26.8629 120 60 120Z" fill="#FFCB17"/>
        <path d="M60 120C93.1371 120 120 93.1371 120 60C120 26.8629 93.1371 0 60 0C26.8629 0 0 26.8629 0 60C0 93.1371 26.8629 120 60 120Z" fill="url(#paint0_linear)" fill-opacity="0.3"/>
        <path d="M49.9849 21C31.7679 21 17 32.9704 17 47.7363C17 53.2443 19.0551 58.3634 22.5772 62.6173V82.2978L34.6691 71.422C39.246 73.3703 44.4565 74.473 49.9849 74.473C68.202 74.473 82.9699 62.5026 82.9699 47.7368C82.9699 32.9709 68.202 21 49.9849 21V21Z" fill="#FE6A16"/>
        <path d="M49.9849 21C31.7679 21 17 32.9704 17 47.7363C17 53.2443 19.0551 58.3634 22.5772 62.6173V82.2978L34.6691 71.422C39.246 73.3703 44.4565 74.473 49.9849 74.473C68.202 74.473 82.9699 62.5026 82.9699 47.7368C82.9699 32.9709 68.202 21 49.9849 21V21Z" fill="url(#paint1_linear)" fill-opacity="0.3"/>
        <path d="M70.4192 38.4018C88.6363 38.4018 103.404 50.3722 103.404 65.138C103.404 70.646 101.349 75.7652 97.827 80.0191V99.6996L85.7353 88.8238C81.1585 90.7721 75.9479 91.8746 70.4195 91.8746C52.2025 91.8746 37.4346 79.9042 37.4346 65.1383C37.4346 50.3724 52.2022 38.4018 70.4192 38.4018V38.4018Z" fill="white"/>
        <path d="M54.8645 70.2265C57.6885 70.2265 59.9778 67.9373 59.9778 65.1133C59.9778 62.2893 57.6885 60 54.8645 60C52.0405 60 49.7512 62.2893 49.7512 65.1133C49.7512 67.9373 52.0405 70.2265 54.8645 70.2265Z" fill="#FE6A16"/>
        <path d="M70.4193 70.2265C73.2433 70.2265 75.5326 67.9373 75.5326 65.1133C75.5326 62.2893 73.2433 60 70.4193 60C67.5953 60 65.306 62.2893 65.306 65.1133C65.306 67.9373 67.5953 70.2265 70.4193 70.2265Z" fill="#FE6A16"/>
        <path d="M85.7941 70.2265C88.618 70.2265 90.9073 67.9373 90.9073 65.1133C90.9073 62.2893 88.618 60 85.7941 60C82.9701 60 80.6808 62.2893 80.6808 65.1133C80.6808 67.9373 82.9701 70.2265 85.7941 70.2265Z" fill="#FE6A16"/>
        <defs>
        <linearGradient id="paint0_linear" x1="60" y1="0" x2="60" y2="120" gradientUnits="userSpaceOnUse">
        <stop stop-color="white"/>
        <stop offset="1" stop-color="white" stop-opacity="0"/>
        </linearGradient>
        <linearGradient id="paint1_linear" x1="49.9849" y1="21" x2="49.9849" y2="82.2978" gradientUnits="userSpaceOnUse">
        <stop stop-color="white"/>
        <stop offset="1" stop-color="white" stop-opacity="0"/>
        </linearGradient>
        </defs>
    </symbol>

    <symbol id="email" viewBox="0 0 121 121">
        <path d="M60.5 121C93.9132 121 121 93.9132 121 60.5C121 27.0868 93.9132 0 60.5 0C27.0868 0 0 27.0868 0 60.5C0 93.9132 27.0868 121 60.5 121Z" fill="#D75746"/>
        <path d="M60.5 121C93.9132 121 121 93.9132 121 60.5C121 27.0868 93.9132 0 60.5 0C27.0868 0 0 27.0868 0 60.5C0 93.9132 27.0868 121 60.5 121Z" fill="url(#paint0_linear)" fill-opacity="0.3"/>
        <path d="M65.4751 23.3154C53.206 21.7632 41.3795 25.9849 33.0101 34.9905C24.6558 43.9961 21.3036 56.1736 23.8159 68.4111C26.7331 82.5832 37.6973 93.8009 51.7512 96.9952C54.6909 97.6701 57.6307 98 60.533 98C66.3 98 71.9246 96.6878 77.1291 94.1083C78.9815 93.186 79.7389 90.9365 78.824 89.0768C77.8941 87.2172 75.6593 86.4749 73.7919 87.3822C67.5299 90.4941 60.4805 91.2889 53.416 89.6842C42.3919 87.1797 33.4526 78.0166 31.1653 66.9039C29.1404 57.0659 31.8252 47.2955 38.5072 40.0894C45.1967 32.8909 54.6684 29.4941 64.5151 30.7539C79.334 32.6735 90.5006 46.1257 90.5006 62.0599V64.242C90.5006 68.3811 87.1409 71.7404 83.0012 71.7404C78.8615 71.7404 75.5018 68.3811 75.5018 64.242V49.2451C75.5018 47.1755 73.8219 45.4958 71.7521 45.4958C70.2147 45.4958 68.9023 46.4256 68.3248 47.7454C66.09 46.3357 63.4652 45.4958 60.503 45.4958C51.6687 45.4958 45.5041 52.4319 45.5041 62.3674C45.5041 72.3028 51.6687 79.2389 60.503 79.2389C65.1601 79.2389 69.0373 77.2743 71.6996 73.99C74.4519 77.1768 78.4715 79.2389 83.0012 79.2389C91.273 79.2389 98 72.5128 98 64.242V62.0599C98 42.369 84.0211 25.7149 65.4751 23.3154ZM60.503 71.7404C55.8758 71.7404 53.0036 68.1487 53.0036 62.3674C53.0036 56.586 55.8758 52.9943 60.503 52.9943C65.1301 52.9943 68.0024 56.586 68.0024 62.3674C68.0024 68.1487 65.1301 71.7404 60.503 71.7404Z" fill="#FAFAFA"/>
        <defs>
        <linearGradient id="paint0_linear" x1="60.5" y1="0" x2="60.5" y2="121" gradientUnits="userSpaceOnUse">
        <stop stop-color="white"/>
        <stop offset="1" stop-color="white" stop-opacity="0"/>
        </linearGradient>
        </defs>
    </symbol>


    <symbol id="facebook" viewBox="0 0 121 121">
        <path d="M105.952 0H15.2019C6.86047 0 0.0769043 6.78356 0.0769043 15.125V105.875C0.0769043 114.216 6.86047 121 15.2019 121H105.952C114.293 121 121.077 114.216 121.077 105.875V15.125C121.077 6.78356 114.293 0 105.952 0Z" fill="#1976D2"/>
        <path d="M105.952 0H15.2019C6.86047 0 0.0769043 6.78356 0.0769043 15.125V105.875C0.0769043 114.216 6.86047 121 15.2019 121H105.952C114.293 121 121.077 114.216 121.077 105.875V15.125C121.077 6.78356 114.293 0 105.952 0Z" fill="url(#paint0_linear)" fill-opacity="0.3"/>
        <path d="M102.171 60.5H83.2644V45.375C83.2644 41.2005 86.6524 41.5937 90.8269 41.5937H98.3894V22.6875H83.2644C70.7333 22.6875 60.5769 32.8439 60.5769 45.375V60.5H45.4519V79.4062H60.5769V121H83.2644V79.4062H94.6081L102.171 60.5Z" fill="#FAFAFA"/>
        <defs>
        <linearGradient id="paint0_linear" x1="60.5769" y1="0" x2="60.5769" y2="121" gradientUnits="userSpaceOnUse">
        <stop stop-color="white"/>
        <stop offset="1" stop-color="white" stop-opacity="0"/>
        </linearGradient>
        </defs>
    </symbol>


    <symbol id="instagram" viewBox="0 0 3364.7 3364.7">
        <defs><radialGradient id="0" cx="217.76" cy="3290.99" r="4271.92" gradientUnits="userSpaceOnUse"><stop offset=".09" stop-color="#fa8f21"/><stop offset=".78" stop-color="#d82d7e"/></radialGradient><radialGradient id="1" cx="2330.61" cy="3182.95" r="3759.33" gradientUnits="userSpaceOnUse"><stop offset=".64" stop-color="#8c3aaa" stop-opacity="0"/><stop offset="1" stop-color="#8c3aaa"/></radialGradient></defs><path d="M853.2,3352.8c-200.1-9.1-308.8-42.4-381.1-70.6-95.8-37.3-164.1-81.7-236-153.5S119.7,2988.6,82.6,2892.8c-28.2-72.3-61.5-181-70.6-381.1C2,2295.4,0,2230.5,0,1682.5s2.2-612.8,11.9-829.3C21,653.1,54.5,544.6,82.5,472.1,119.8,376.3,164.3,308,236,236c71.8-71.8,140.1-116.4,236-153.5C544.3,54.3,653,21,853.1,11.9,1069.5,2,1134.5,0,1682.3,0c548,0,612.8,2.2,829.3,11.9,200.1,9.1,308.6,42.6,381.1,70.6,95.8,37.1,164.1,81.7,236,153.5s116.2,140.2,153.5,236c28.2,72.3,61.5,181,70.6,381.1,9.9,216.5,11.9,281.3,11.9,829.3,0,547.8-2,612.8-11.9,829.3-9.1,200.1-42.6,308.8-70.6,381.1-37.3,95.8-81.7,164.1-153.5,235.9s-140.2,116.2-236,153.5c-72.3,28.2-181,61.5-381.1,70.6-216.3,9.9-281.3,11.9-829.3,11.9-547.8,0-612.8-1.9-829.1-11.9" fill="url(#0)"/><path d="M853.2,3352.8c-200.1-9.1-308.8-42.4-381.1-70.6-95.8-37.3-164.1-81.7-236-153.5S119.7,2988.6,82.6,2892.8c-28.2-72.3-61.5-181-70.6-381.1C2,2295.4,0,2230.5,0,1682.5s2.2-612.8,11.9-829.3C21,653.1,54.5,544.6,82.5,472.1,119.8,376.3,164.3,308,236,236c71.8-71.8,140.1-116.4,236-153.5C544.3,54.3,653,21,853.1,11.9,1069.5,2,1134.5,0,1682.3,0c548,0,612.8,2.2,829.3,11.9,200.1,9.1,308.6,42.6,381.1,70.6,95.8,37.1,164.1,81.7,236,153.5s116.2,140.2,153.5,236c28.2,72.3,61.5,181,70.6,381.1,9.9,216.5,11.9,281.3,11.9,829.3,0,547.8-2,612.8-11.9,829.3-9.1,200.1-42.6,308.8-70.6,381.1-37.3,95.8-81.7,164.1-153.5,235.9s-140.2,116.2-236,153.5c-72.3,28.2-181,61.5-381.1,70.6-216.3,9.9-281.3,11.9-829.3,11.9-547.8,0-612.8-1.9-829.1-11.9" fill="url(#1)"/><path d="M1269.25,1689.52c0-230.11,186.49-416.7,416.6-416.7s416.7,186.59,416.7,416.7-186.59,416.7-416.7,416.7-416.6-186.59-416.6-416.7m-225.26,0c0,354.5,287.36,641.86,641.86,641.86s641.86-287.36,641.86-641.86-287.36-641.86-641.86-641.86S1044,1335,1044,1689.52m1159.13-667.31a150,150,0,1,0,150.06-149.94h-0.06a150.07,150.07,0,0,0-150,149.94M1180.85,2707c-121.87-5.55-188.11-25.85-232.13-43-58.36-22.72-100-49.78-143.78-93.5s-70.88-85.32-93.5-143.68c-17.16-44-37.46-110.26-43-232.13-6.06-131.76-7.27-171.34-7.27-505.15s1.31-373.28,7.27-505.15c5.55-121.87,26-188,43-232.13,22.72-58.36,49.78-100,93.5-143.78s85.32-70.88,143.78-93.5c44-17.16,110.26-37.46,232.13-43,131.76-6.06,171.34-7.27,505-7.27S2059.13,666,2191,672c121.87,5.55,188,26,232.13,43,58.36,22.62,100,49.78,143.78,93.5s70.78,85.42,93.5,143.78c17.16,44,37.46,110.26,43,232.13,6.06,131.87,7.27,171.34,7.27,505.15s-1.21,373.28-7.27,505.15c-5.55,121.87-25.95,188.11-43,232.13-22.72,58.36-49.78,100-93.5,143.68s-85.42,70.78-143.78,93.5c-44,17.16-110.26,37.46-232.13,43-131.76,6.06-171.34,7.27-505.15,7.27s-373.28-1.21-505-7.27M1170.5,447.09c-133.07,6.06-224,27.16-303.41,58.06-82.19,31.91-151.86,74.72-221.43,144.18S533.39,788.47,501.48,870.76c-30.9,79.46-52,170.34-58.06,303.41-6.16,133.28-7.57,175.89-7.57,515.35s1.41,382.07,7.57,515.35c6.06,133.08,27.16,223.95,58.06,303.41,31.91,82.19,74.62,152,144.18,221.43s139.14,112.18,221.43,144.18c79.56,30.9,170.34,52,303.41,58.06,133.35,6.06,175.89,7.57,515.35,7.57s382.07-1.41,515.35-7.57c133.08-6.06,223.95-27.16,303.41-58.06,82.19-32,151.86-74.72,221.43-144.18s112.18-139.24,144.18-221.43c30.9-79.46,52.1-170.34,58.06-303.41,6.06-133.38,7.47-175.89,7.47-515.35s-1.41-382.07-7.47-515.35c-6.06-133.08-27.16-224-58.06-303.41-32-82.19-74.72-151.86-144.18-221.43S2586.8,537.06,2504.71,505.15c-79.56-30.9-170.44-52.1-303.41-58.06C2068,441,2025.41,439.52,1686,439.52s-382.1,1.41-515.45,7.57" fill="#fff"/>
    </symbol>

    <symbol id="ok" viewBox="0 0 121 121">
        <rect x="32.6187" y="21.3616" width="60.0779" height="92.1195" fill="white"/>
        <path fill-rule="evenodd" clip-rule="evenodd" d="M52.5553 0.483293C26.6427 4.67314 7.15418 23.0455 1.61039 48.5105C0.232408 54.8391 0.232408 66.1854 1.61039 72.5139C6.89638 96.7961 24.9275 114.714 49.3766 119.982C55.6973 121.344 67.1216 121.339 73.5321 119.972C86.1905 117.273 96.4619 111.623 105.3 102.5C113.712 93.8143 118.742 84.3778 121.283 72.5139C122.574 66.4866 122.669 55.7138 121.486 49.4589C116.855 24.9757 97.4486 5.61722 72.7958 0.889013C67.6363 -0.100149 57.4304 -0.305176 52.5553 0.483293ZM64.3185 28.9072C69.2861 29.8109 73.4968 32.9995 76.0033 37.7554C77.2744 40.1668 77.3743 40.6718 77.3743 44.6908C77.3743 48.7129 77.2748 49.214 75.9972 51.644C69.6307 63.7506 53.2781 63.7506 46.9116 51.644C45.6318 49.2097 45.5349 48.7203 45.5419 44.6908C45.5484 40.8322 45.6824 40.0896 46.7602 37.9297C48.9805 33.4811 53.34 30.0125 57.9525 29.0251C61.0823 28.3549 61.2659 28.3515 64.3185 28.9072ZM58.069 37.3883C53.6454 39.5552 52.0161 45.0406 54.6452 48.9171C58.9348 55.2426 68.5908 53.0411 69.2119 45.5959C69.4636 42.5825 69.1644 41.4208 67.6887 39.6778C65.3825 36.9544 61.057 35.9249 58.069 37.3883ZM47.2623 62.2634C57.019 66.7424 65.3018 66.7935 75.2015 62.4355C77.6042 61.3779 80.156 60.5135 80.8722 60.5153C82.4112 60.5183 84.5067 61.7892 85.2919 63.1954C86.0518 64.5564 86.0221 67.2218 85.23 68.7441C84.4932 70.1598 78.3457 73.4563 74.2205 74.6479L71.8148 75.3427L75.9653 79.5226C78.248 81.8217 80.3335 84.1286 80.5996 84.6492C81.8912 87.1754 80.4735 90.8611 77.7795 91.9799C74.7788 93.2257 73.6133 92.6067 67.2342 86.3782L61.4544 80.735L55.6746 86.3782C49.2955 92.6067 48.1299 93.2257 45.1292 91.9799C42.4352 90.8611 41.0175 87.1754 42.3092 84.6492C42.5752 84.1286 44.6507 81.8317 46.9208 79.5451L51.0486 75.3882L48.0724 74.4025C43.3936 72.8529 38.3951 70.1204 37.6618 68.7112C36.8849 67.2179 36.8626 64.5456 37.6169 63.1954C38.4121 61.7714 40.5037 60.5183 42.0911 60.5153C42.8374 60.5135 45.1646 61.3003 47.2623 62.2634Z" fill="#FF9600"/>
        <path fill-rule="evenodd" clip-rule="evenodd" d="M52.5553 0.483293C26.6427 4.67314 7.15418 23.0455 1.61039 48.5105C0.232408 54.8391 0.232408 66.1854 1.61039 72.5139C6.89638 96.7961 24.9275 114.714 49.3766 119.982C55.6973 121.344 67.1216 121.339 73.5321 119.972C86.1905 117.273 96.4619 111.623 105.3 102.5C113.712 93.8143 118.742 84.3778 121.283 72.5139C122.574 66.4866 122.669 55.7138 121.486 49.4589C116.855 24.9757 97.4486 5.61722 72.7958 0.889013C67.6363 -0.100149 57.4304 -0.305176 52.5553 0.483293ZM64.3185 28.9072C69.2861 29.8109 73.4968 32.9995 76.0033 37.7554C77.2744 40.1668 77.3743 40.6718 77.3743 44.6908C77.3743 48.7129 77.2748 49.214 75.9972 51.644C69.6307 63.7506 53.2781 63.7506 46.9116 51.644C45.6318 49.2097 45.5349 48.7203 45.5419 44.6908C45.5484 40.8322 45.6824 40.0896 46.7602 37.9297C48.9805 33.4811 53.34 30.0125 57.9525 29.0251C61.0823 28.3549 61.2659 28.3515 64.3185 28.9072ZM58.069 37.3883C53.6454 39.5552 52.0161 45.0406 54.6452 48.9171C58.9348 55.2426 68.5908 53.0411 69.2119 45.5959C69.4636 42.5825 69.1644 41.4208 67.6887 39.6778C65.3825 36.9544 61.057 35.9249 58.069 37.3883ZM47.2623 62.2634C57.019 66.7424 65.3018 66.7935 75.2015 62.4355C77.6042 61.3779 80.156 60.5135 80.8722 60.5153C82.4112 60.5183 84.5067 61.7892 85.2919 63.1954C86.0518 64.5564 86.0221 67.2218 85.23 68.7441C84.4932 70.1598 78.3457 73.4563 74.2205 74.6479L71.8148 75.3427L75.9653 79.5226C78.248 81.8217 80.3335 84.1286 80.5996 84.6492C81.8912 87.1754 80.4735 90.8611 77.7795 91.9799C74.7788 93.2257 73.6133 92.6067 67.2342 86.3782L61.4544 80.735L55.6746 86.3782C49.2955 92.6067 48.1299 93.2257 45.1292 91.9799C42.4352 90.8611 41.0175 87.1754 42.3092 84.6492C42.5752 84.1286 44.6507 81.8317 46.9208 79.5451L51.0486 75.3882L48.0724 74.4025C43.3936 72.8529 38.3951 70.1204 37.6618 68.7112C36.8849 67.2179 36.8626 64.5456 37.6169 63.1954C38.4121 61.7714 40.5037 60.5183 42.0911 60.5153C42.8374 60.5135 45.1646 61.3003 47.2623 62.2634Z" fill="url(#paint0_linear)" fill-opacity="0.3"/>
        <defs>
        <linearGradient id="paint0_linear" x1="61.4462" y1="0" x2="61.4462" y2="121" gradientUnits="userSpaceOnUse">
        <stop stop-color="white"/>
        <stop offset="1" stop-color="white" stop-opacity="0"/>
        </linearGradient>
        </defs>
    </symbol>

    <symbol id="telegram" viewBox="0 0 121 121">
        <path d="M60.8076 121C94.2208 121 121.308 93.9132 121.308 60.5C121.308 27.0868 94.2208 0 60.8076 0C27.3944 0 0.307617 27.0868 0.307617 60.5C0.307617 93.9132 27.3944 121 60.8076 121Z" fill="#0394DB"/>
        <path d="M60.8076 121C94.2208 121 121.308 93.9132 121.308 60.5C121.308 27.0868 94.2208 0 60.8076 0C27.3944 0 0.307617 27.0868 0.307617 60.5C0.307617 93.9132 27.3944 121 60.8076 121Z" fill="url(#paint0_linear)" fill-opacity="0.4"/>
        <path d="M27.9916 59.189L86.3237 36.6981C89.0311 35.72 91.3956 37.3586 90.5184 41.4524L90.5234 41.4474L80.5913 88.2391C79.8553 91.5565 77.884 92.3632 75.1262 90.8003L60.0012 79.6531L52.7059 86.6812C51.8992 87.4879 51.2186 88.1685 49.6557 88.1685L50.7296 72.7763L78.7612 47.452C79.9813 46.3781 78.489 45.7731 76.8807 46.842L42.2394 68.6522L27.306 63.9937C24.0642 62.9652 23.9936 60.7519 27.9916 59.189V59.189Z" fill="white"/>
        <defs>
        <linearGradient id="paint0_linear" x1="60.8076" y1="0" x2="60.8076" y2="121" gradientUnits="userSpaceOnUse">
        <stop stop-color="white"/>
        <stop offset="1" stop-color="white" stop-opacity="0"/>
        </linearGradient>
        </defs>
    </symbol>

    <symbol id="vk" viewBox="0 0 121 121">
        <rect x="15.125" y="30.25" width="90.75" height="75.625" fill="white"/>
        <path fill-rule="evenodd" clip-rule="evenodd" d="M8.81364 1.45445C5.14751 3.21743 2.99402 5.39935 1.28574 9.0816L0 11.8544V60.504V109.154L1.28574 111.926C2.99502 115.611 5.14953 117.792 8.81364 119.55L11.8389 121H60.4955H109.152L112.177 119.55C115.841 117.792 117.996 115.611 119.705 111.926L120.991 109.154L120.995 60.504L121 11.8544L119.549 8.82953C117.908 5.40692 115.741 3.15693 112.429 1.43731L110.16 0.259129L60.9997 0.129564L11.8389 0L8.81364 1.45445ZM63.4875 35.8505C64.5998 36.1837 65.947 36.8638 66.481 37.3609C67.7602 38.5527 68.2397 42.2778 67.797 47.5884C67.3528 52.9258 67.8756 57.6471 69.0757 59.1237L69.9918 60.252L71.4202 59.1988C73.8006 57.4439 76.4467 53.5434 80.1507 46.3296C82.0894 42.5536 84.0079 39.1889 84.4138 38.8522C85.2569 38.1524 100.822 37.8595 102.723 38.5073C105.843 39.5706 102.974 45.9253 94.6226 56.4533C90.9832 61.0404 89.999 62.9879 90.4371 64.7343C90.6187 65.4562 93.3817 68.7654 96.5779 72.0892C102.269 78.0068 103.858 80.3682 103.858 82.9106C103.858 85.3098 102.236 85.7736 93.6848 85.821C88.8716 85.8477 85.4172 85.6425 84.5237 85.2775C83.7346 84.9549 80.6887 82.3117 77.7557 79.4038C72.0192 73.7166 70.7552 73.1136 69.2824 75.3621C68.8331 76.0472 68.2301 78.3728 67.9427 80.5295C67.62 82.9484 67.1188 84.6922 66.6343 85.0809C65.524 85.9717 57.3688 85.8881 53.6684 84.9473C47.7737 83.449 43.4879 80.888 38.5622 75.9202C30.7872 68.0782 17.9394 47.1397 17.2723 41.2242C16.9446 38.3168 17.1084 38.2543 25.8545 37.9382C32.5192 37.6977 32.8616 37.734 34.0006 38.8038C35.0604 39.7989 37.6234 44.6271 41.5159 52.9606C43.4268 57.0517 46.1072 59.9999 47.9164 59.9999C50.3063 59.9999 50.9174 58.1235 50.9043 50.8245C50.8912 43.334 49.9836 40.5299 47.4066 40.0147C45.5743 39.6482 45.5123 39.3306 47.0078 37.9684C48.7816 36.3531 50.2267 35.7673 53.5928 35.3C57.2004 34.7989 60.6094 34.9884 63.4875 35.8505Z" fill="#4D76A1"/>
        <path fill-rule="evenodd" clip-rule="evenodd" d="M8.81364 1.45445C5.14751 3.21743 2.99402 5.39935 1.28574 9.0816L0 11.8544V60.504V109.154L1.28574 111.926C2.99502 115.611 5.14953 117.792 8.81364 119.55L11.8389 121H60.4955H109.152L112.177 119.55C115.841 117.792 117.996 115.611 119.705 111.926L120.991 109.154L120.995 60.504L121 11.8544L119.549 8.82953C117.908 5.40692 115.741 3.15693 112.429 1.43731L110.16 0.259129L60.9997 0.129564L11.8389 0L8.81364 1.45445ZM63.4875 35.8505C64.5998 36.1837 65.947 36.8638 66.481 37.3609C67.7602 38.5527 68.2397 42.2778 67.797 47.5884C67.3528 52.9258 67.8756 57.6471 69.0757 59.1237L69.9918 60.252L71.4202 59.1988C73.8006 57.4439 76.4467 53.5434 80.1507 46.3296C82.0894 42.5536 84.0079 39.1889 84.4138 38.8522C85.2569 38.1524 100.822 37.8595 102.723 38.5073C105.843 39.5706 102.974 45.9253 94.6226 56.4533C90.9832 61.0404 89.999 62.9879 90.4371 64.7343C90.6187 65.4562 93.3817 68.7654 96.5779 72.0892C102.269 78.0068 103.858 80.3682 103.858 82.9106C103.858 85.3098 102.236 85.7736 93.6848 85.821C88.8716 85.8477 85.4172 85.6425 84.5237 85.2775C83.7346 84.9549 80.6887 82.3117 77.7557 79.4038C72.0192 73.7166 70.7552 73.1136 69.2824 75.3621C68.8331 76.0472 68.2301 78.3728 67.9427 80.5295C67.62 82.9484 67.1188 84.6922 66.6343 85.0809C65.524 85.9717 57.3688 85.8881 53.6684 84.9473C47.7737 83.449 43.4879 80.888 38.5622 75.9202C30.7872 68.0782 17.9394 47.1397 17.2723 41.2242C16.9446 38.3168 17.1084 38.2543 25.8545 37.9382C32.5192 37.6977 32.8616 37.734 34.0006 38.8038C35.0604 39.7989 37.6234 44.6271 41.5159 52.9606C43.4268 57.0517 46.1072 59.9999 47.9164 59.9999C50.3063 59.9999 50.9174 58.1235 50.9043 50.8245C50.8912 43.334 49.9836 40.5299 47.4066 40.0147C45.5743 39.6482 45.5123 39.3306 47.0078 37.9684C48.7816 36.3531 50.2267 35.7673 53.5928 35.3C57.2004 34.7989 60.6094 34.9884 63.4875 35.8505Z" fill="url(#paint0_linear)" fill-opacity="0.3"/>
        <defs>
        <linearGradient id="paint0_linear" x1="60.5" y1="0" x2="60.5" y2="121" gradientUnits="userSpaceOnUse">
        <stop stop-color="white"/>
        <stop offset="1" stop-color="white" stop-opacity="0"/>
        </linearGradient>
        </defs>
    </symbol>
</svg>
